<svg width="20" height="20" viewBox="0 0 20 20" fill="none" xmlns="http://www.w3.org/2000/svg">
<path d="M9.5 15.1259L15.6633 8.9626C14.6264 8.52966 13.6846 7.89711 12.8917 7.10093C12.0951 6.30777 11.4623 5.36574 11.0292 4.32843L4.86583 10.4918C4.385 10.9726 4.14416 11.2134 3.9375 11.4784C3.69342 11.7912 3.48413 12.1295 3.31333 12.4876C3.16916 12.7909 3.06166 13.1143 2.84666 13.7593L1.71166 17.1618C1.65942 17.3176 1.65167 17.4848 1.68928 17.6448C1.72689 17.8047 1.80837 17.951 1.92456 18.0672C2.04074 18.1834 2.18703 18.2649 2.34698 18.3025C2.50694 18.3401 2.67421 18.3323 2.83 18.2801L6.2325 17.1451C6.87833 16.9301 7.20083 16.8226 7.50416 16.6784C7.8625 16.5076 8.20083 16.2984 8.51333 16.0543C8.77833 15.8476 9.01916 15.6068 9.5 15.1259ZM17.3733 7.2526C17.9879 6.63807 18.3331 5.80459 18.3331 4.93551C18.3331 4.06644 17.9879 3.23296 17.3733 2.61843C16.7588 2.0039 15.9253 1.65866 15.0562 1.65866C14.1872 1.65866 13.3537 2.0039 12.7392 2.61843L12 3.35759L12.0317 3.4501C12.3959 4.49236 12.992 5.43835 13.775 6.21676C14.5767 7.02318 15.5558 7.63102 16.6342 7.99176L17.3733 7.2526Z" fill="#637381"/>
</svg>
